<svg id="football" version="1.0" xmlns="http://www.w3.org/2000/svg" width="20" height="20" viewBox="0 0 512 512"><path d="M225 1.6c-46.7 6.3-90.7 27.5-125 60.1-37.9 36-61.7 82.9-68.6 135.3-2 15.8-1.5 51.7 1.1 65.5 5.2 28.3 15.4 56.5 28.2 77.9 5 8.4 19.5 27.6 27 35.8 3.5 3.7 6.3 7.1 6.3 7.6 0 .4-2.8 2.3-6.2 4.2-13.3 7.5-22.8 19.5-22.8 28.4.1 22.3 39.7 43.1 102.5 53.6 75.8 12.8 172.7 7.3 229.6-13 38.5-13.7 55.2-31.5 46.9-49.8-2.5-5.5-10.9-13.6-19.1-18.4-3.5-2.1-6.8-3.9-7.3-4.1-.6-.2 1.7-3.6 5.1-7.4 3.4-3.9 9.2-11 12.9-15.9 3.7-4.9 7-9.1 7.4-9.4.5-.3 3.6-5.2 7.1-11 15.2-25.6 25.5-55.4 29.5-85.5 2.2-16.2 2.2-47.4.1-61.8C468.3 118.1 422 55 353.8 22c-22.3-10.7-43.9-17.2-69.1-20.5C270-.4 239.5-.3 225 1.6zM288.5 20c20.4 3.4 17.2.7 31.5 26.6 6.9 12.5 12.4 22.9 12.3 23.3-.1.3-8.7 15.9-19.1 34.6l-18.9 34-38.5.3-38.5.2-19.2-34.4c-10.5-19-19.1-34.8-19.1-35.1 0-.9 23.2-42.8 24.7-44.7 1.7-1.9 18.7-5.3 33.3-6.8 13.4-1.2 37.4-.3 51.5 2zm-105.6 92.4c10.5 18.8 19.1 34.7 19.1 35.2s-8.5 16.2-18.9 34.9l-18.9 34H86.8l-15-26.9-15-26.9 2.8-7.6c8.7-24.4 22.9-48 41.4-69l7.1-8.1h55.7l19.1 34.4zm227-26.7c9.3 10.2 17.6 21.4 25.2 34.1 6 10.1 15.4 30.5 17.9 38.9l1.3 4.2-14.9 27-14.9 27-38.6.1h-38.5l-19.3-34.6c-10.5-19.1-19.1-35-18.9-35.4.2-.4 8.8-16.1 19.3-34.8l19-34.2h55.4l7 7.7zm-227 182.8c10.5 18.9 19.1 34.8 19.1 35.3s-8.5 16.2-18.8 34.8l-18.9 33.9-27.8.3-27.9.2-3.4-3.2c-5.1-5-17.2-20.2-23.6-29.8-7.2-10.8-16.3-28.7-21-41.4l-3.7-9.8 15.2-27.4L87.2 234h76.5l19.2 34.5zm256.4-7l15 27-2.7 8c-7.9 23.3-24.7 50.7-43.2 70.7l-5.3 5.8h-55.8l-19.2-34.6-19.2-34.6 19.3-34.9 19.3-34.9 38.4.3 38.4.2 15 27zm-126.4 84.9c10.5 18.8 19.1 34.9 19.1 35.7-.1.8-5.6 11.3-12.4 23.3-13.9 24.9-10.9 22.4-29.6 25.7-23.1 4.1-54.9 3.4-78.3-1.7l-7.6-1.7-12.7-22.8c-6.9-12.6-12.4-23.2-12.2-23.7.1-.5 8.8-16.3 19.3-35l19-34.2H293.8l19.1 34.4z"/></svg>