<svg aria-hidden="true" style="position : absolute ;width : 0;height: 0" xmlns="http://www.w3.org/2000/svg" overflow="hidden"> <defs>
<symbol id="icon-check" viewBox="0 0 34 32"><path fill="var(--color1, #1b1b1b)" d="M4.268-.006h25.61a4.268 4.268 0 014.268 4.268v23.476a4.268 4.268 0 01-4.268 4.268H4.268A4.268 4.268 0 010 27.738V4.262A4.268 4.268 0 014.268-.006z"/><path fill="var(--color2, #fff)" stroke="var(--color2, #fff)" stroke-width=".427" d="M8.445 16.538l-.147-.141-.147.139-2.057 1.951.162.156 7.608 7.256.147-.141 16.177-15.432-.162-.154-2.03-1.936-.147.141-13.985 13.33-5.419-5.169z"/>
</symbol> <symbol id="icon-uncheck" viewBox="0 0 34 32"><path d="M30.352 3.551v24.897H3.794V3.551h26.558zm0-3.557H3.794c-2.087 0-3.795 1.601-3.795 3.558v24.897c0 1.957 1.707 3.558 3.795 3.558h26.558c2.087 0 3.795-1.601 3.795-3.558V3.552c0-1.957-1.707-3.558-3.795-3.558z"/></symbol> </defs> </svg>